<?xml version="1.0" encoding="UTF-8"?>
<svg version="1.1" xmlns="http://www.w3.org/2000/svg" width="534" height="534">
<path d="M0 0 C1.07523926 0.22026855 2.15047852 0.44053711 3.25830078 0.66748047 C21.14574184 4.4090886 38.58631435 9.50296457 56 15 C57.05960937 15.33257812 58.11921875 15.66515625 59.2109375 16.0078125 C123.80832887 36.43320874 189.38986958 67.56312191 239.62890625 113.8203125 C241.34635332 115.39911886 243.08642772 116.95342625 244.83984375 118.4921875 C259.73296055 131.64610811 266.44078934 146.34676389 268.28125 166.00390625 C268.68314103 177.50803694 265.94598083 188.34467977 258.20727539 197.0065918 C256.21485182 199.04392912 254.18374203 201.02976464 252.125 203 C247.38868743 207.58410593 242.852253 212.21879877 238.55419922 217.21875 C235.99518802 220.15160356 233.19768902 222.82313752 230.40625 225.53125 C228.50905496 227.47772284 226.74808112 229.44133504 224.984375 231.50390625 C220.35890406 236.83039411 215.3809587 241.80508621 210.39501953 246.7902832 C208.76172552 248.42575882 207.1366153 250.06907708 205.51171875 251.71289062 C198.99096637 258.26884959 192.30395552 264.31160064 185 270 C184.39446289 270.48073975 183.78892578 270.96147949 183.16503906 271.45678711 C173.49505469 279.00975513 163.09516764 283.64663691 150.81495094 284.60789776 C140.36811435 285.42897512 131.13041901 288.11685096 121.2890625 291.57421875 C119.63971767 292.13813363 117.98980425 292.70038783 116.33937073 293.2611084 C111.98699949 294.74464866 107.6425616 296.25019476 103.29937363 297.76037216 C98.8115304 299.31617736 94.31622421 300.85010182 89.8215332 302.38598633 C81.91481046 305.09089389 74.01369154 307.81168186 66.11564922 310.54182148 C55.73426854 314.13003968 45.34328835 317.6900066 34.94915771 321.24111938 C32.24686903 322.16715508 29.54726552 323.1006661 26.84814453 324.03588867 C25.26728158 324.57999955 23.68639177 325.12403243 22.10546875 325.66796875 C21.41256241 325.91035278 20.71965607 326.15273682 20.00575256 326.40246582 C17.19095641 327.36622077 15.00113863 328 12 328 C12.2165625 328.69222656 12.433125 329.38445312 12.65625 330.09765625 C17.25627208 346.26162271 15.37086366 360.85705362 7.75 375.75 C4.36805741 381.67378479 0.54229574 386.91892831 -4 392 C-4.72703125 392.82113281 -5.4540625 393.64226562 -6.203125 394.48828125 C-36.10262406 426.3183771 -89.24928719 436.83999876 -130.3125 444.9375 C-131.3864502 445.14947021 -132.46040039 445.36144043 -133.56689453 445.57983398 C-138.80022066 446.56333693 -143.67485916 447.24785564 -149 447 C-153.39150902 438.54721416 -157.23013116 429.97428492 -160.75 421.125 C-161.00534515 420.48304688 -161.26069031 419.84109375 -161.52377319 419.1796875 C-177.73594969 378.26852427 -197.17633738 327.36463422 -179.37890625 284.06640625 C-175.91060517 276.35361206 -172.35383201 269.76144317 -166.22265625 263.8515625 C-164.7635918 262.06882694 -164.7635918 262.06882694 -165.22680664 259.86279297 C-166.21339952 256.209876 -167.64632945 252.80654021 -169.1484375 249.34375 C-169.47213318 248.58665741 -169.79582886 247.82956482 -170.1293335 247.04953003 C-170.83464051 245.40132556 -171.54212703 243.75405244 -172.25152588 242.10760498 C-173.797912 238.51841313 -175.3337914 234.92475399 -176.87045288 231.33139038 C-177.68308097 229.43143868 -178.49626238 227.53172355 -179.30996704 225.63223267 C-183.23131024 216.47515492 -187.10350745 207.29766581 -190.96981812 198.11724854 C-198.62847284 179.93661829 -206.33522538 161.7765591 -214.0625 143.625 C-214.53778137 142.5077655 -215.01306274 141.39053101 -215.50274658 140.23944092 C-221.24672302 126.73941311 -227.03871266 113.26173409 -232.90405273 99.81396484 C-233.26360046 98.98736862 -233.62314819 98.1607724 -233.99359131 97.30912781 C-234.63324105 95.84150037 -235.27628954 94.37534599 -235.92388916 92.91120911 C-240.50667933 82.46178839 -239.40438795 71.6870347 -236 61 C-224.57320099 33.50996916 -195.82663482 20.32100953 -170.14648438 9.29589844 C-116.38521247 -12.84600343 -56.06977503 -11.50505665 0 0 Z M-224 94 C-221.53558038 103.10804515 -218.04035135 111.74932619 -214.53964233 120.49584961 C-212.61671234 125.30107144 -210.70816996 130.11201642 -208.796875 134.921875 C-208.39941574 135.92089844 -208.00195648 136.91992188 -207.592453 137.94921875 C-203.41677848 148.45026437 -199.29892859 158.97367106 -195.1875 169.5 C-193.69813275 173.31128239 -192.208464 177.12244689 -190.71875 180.93359375 C-190.34248474 181.89633713 -189.96621948 182.85908051 -189.57855225 183.85099792 C-186.58919658 191.49790806 -183.59267413 199.14199406 -180.59375 206.78515625 C-180.14163651 207.93748749 -179.68952301 209.08981873 -179.22370911 210.27706909 C-177.44770947 214.80334467 -175.6715716 219.3295657 -173.8946228 223.85546875 C-165.1025617 246.24913116 -165.1025617 246.24913116 -161 257 C-157.55639368 257 -156.25204608 256.20408468 -153.3125 254.5 C-152.50425781 254.0359375 -151.69601563 253.571875 -150.86328125 253.09375 C-150.24839844 252.7328125 -149.63351563 252.371875 -149 252 C-149.62256084 245.93565405 -150.83482976 240.26028084 -152.41748047 234.37915039 C-152.66330368 233.44897598 -152.90912689 232.51880157 -153.16239929 231.56044006 C-153.97567728 228.48816542 -154.79638197 225.41792757 -155.6171875 222.34765625 C-156.19519405 220.17056281 -156.77275079 217.9933499 -157.34988403 215.81602478 C-158.8764846 210.06183317 -160.40944119 204.30935306 -161.94366455 198.55718994 C-163.46123221 192.86275572 -164.97246164 187.16664064 -166.484375 181.47070312 C-169.97910174 168.31100221 -173.48625402 155.15463451 -177 142 C-177.27795914 140.95935143 -177.55591827 139.91870285 -177.84230042 138.84651947 C-179.42457119 132.92391583 -181.00845047 127.00174579 -182.59466934 121.08019829 C-183.07414193 119.29014301 -183.55336158 117.50001996 -184.0323143 115.70982552 C-184.68481531 113.27170712 -185.33853691 110.83391963 -185.99267578 108.39624023 C-186.18323673 107.68353659 -186.37379768 106.97083294 -186.57013321 106.23653221 C-187.31579832 103.46260946 -188.09136988 100.72589037 -189 98 C-200.07239482 93.98303816 -212.35558417 93.81061253 -224 94 Z M-180 100 C-178.66659375 107.79993732 -177.01943344 115.4845205 -175.17431641 123.17822266 C-174.89759598 124.34245758 -174.62087555 125.5066925 -174.33576965 126.70620728 C-173.58361027 129.86825902 -172.82888858 133.02968532 -172.07299471 136.19084597 C-171.27596006 139.52689708 -170.48232952 142.86375791 -169.68832397 146.20053101 C-168.18321608 152.52346716 -166.6751821 158.84570148 -165.1660341 165.16767442 C-163.29573712 173.00312589 -161.42906299 180.83943959 -159.5625 188.67578125 C-158.90272923 191.44559417 -158.24293164 194.2154007 -157.58309937 196.98519897 C-157.42267635 197.6586134 -157.26225333 198.33202782 -157.09696901 199.02584875 C-156.00659053 203.60251984 -154.91521198 208.17895145 -153.82339478 212.75527954 C-150.8628795 225.1657082 -147.91297331 237.57832011 -145 250 C-139.39 249.67 -133.78 249.34 -128 249 C-129.27170132 231.21524828 -130.7001753 213.45231713 -132.3125 195.6953125 C-132.47149277 193.93799112 -132.47149277 193.93799112 -132.63369751 192.1451683 C-133.19108741 185.98586881 -133.75110649 179.82681546 -134.31347656 173.66796875 C-134.89181926 167.32833215 -135.46079859 160.9878893 -136.02784729 154.64723396 C-136.46885752 149.73464441 -136.9166381 144.82268912 -137.36630249 139.91088486 C-137.57935067 137.57073783 -137.78984685 135.23035698 -137.99771118 132.8897438 C-138.2868684 129.64080033 -138.58559541 126.39287269 -138.88671875 123.14501953 C-138.96989349 122.18618362 -139.05306824 121.22734772 -139.13876343 120.23945618 C-139.66644814 113.87365249 -139.66644814 113.87365249 -142 108 C-144.51607973 106.96885782 -146.6150169 106.32414107 -149.23828125 105.76171875 C-149.95606247 105.59122513 -150.67384369 105.42073151 -151.41337585 105.24507141 C-152.93172873 104.88837856 -154.45250437 104.54186724 -155.9753418 104.20483398 C-158.29816434 103.69067322 -160.61283186 103.14821935 -162.92773438 102.59960938 C-164.40586181 102.25613764 -165.88436713 101.91428726 -167.36328125 101.57421875 C-168.05303543 101.41491379 -168.74278961 101.25560883 -169.45344543 101.09147644 C-173.04966007 100.2993183 -176.32824748 99.93398881 -180 100 Z M-133 111 C-133.39044113 124.69340597 -132.22826626 138.31832529 -131.28515625 151.96875 C-131.10786193 154.57993381 -130.93090112 157.19114028 -130.7542572 159.80236816 C-130.38509141 165.24900605 -130.01222124 170.69538023 -129.63696289 176.14160156 C-129.20405026 182.42509271 -128.77659847 188.70893705 -128.35212237 194.99300337 C-127.94166151 201.06832782 -127.52780371 207.14341517 -127.1123333 213.21839905 C-126.93653865 215.79235084 -126.76152081 218.36635581 -126.58729744 220.94041443 C-126.34375655 224.53014568 -126.09637024 228.11959137 -125.84790039 231.70898438 C-125.77668976 232.76880524 -125.70547913 233.8286261 -125.6321106 234.92056274 C-125.5634227 235.90144867 -125.4947348 236.88233459 -125.42396545 237.89294434 C-125.3658925 238.73940269 -125.30781954 239.58586105 -125.24798679 240.45796967 C-124.96859276 243.32194522 -124.47306982 246.16158108 -124 249 C-119.71 249.99 -115.42 250.98 -111 252 C-110.29819554 248.49097772 -109.83170982 245.52955034 -109.65196228 242.01751709 C-109.60010269 241.03919418 -109.5482431 240.06087128 -109.49481201 239.05290222 C-109.44230286 237.9909816 -109.3897937 236.92906097 -109.33569336 235.83496094 C-109.27702591 234.70751968 -109.21835846 233.58007843 -109.15791321 232.41847229 C-108.96490614 228.69061758 -108.77726293 224.9625145 -108.58984375 221.234375 C-108.45700914 218.63989972 -108.3239132 216.04543781 -108.19056702 213.45098877 C-107.91174789 208.0105726 -107.63538223 202.57004032 -107.36108398 197.12939453 C-107.04485383 190.857583 -106.72441743 184.58599758 -106.4016065 178.31452155 C-106.09026643 172.26462413 -105.78158763 166.21459474 -105.47415352 160.16449738 C-105.34358006 157.59852298 -105.21240489 155.03257914 -105.08061028 152.46666718 C-104.89642976 148.87209504 -104.71526073 145.27738335 -104.53491211 141.68261719 C-104.48037872 140.62879349 -104.42584534 139.57496979 -104.36965942 138.48921204 C-104.0803232 132.65052654 -103.94815695 126.84588929 -104 121 C-113.43942427 116.72588689 -123.03730811 113.77397227 -133 111 Z M-98 123 C-99.17750214 138.7510884 -100.35118258 154.50245665 -101.52036285 170.2541647 C-102.06336904 177.56858577 -102.60760699 184.88291123 -103.15478516 192.19702148 C-103.63191877 198.57489136 -104.10670006 204.95293134 -104.5787034 211.33118302 C-104.82851027 214.70576103 -105.079463 218.08024468 -105.33323669 221.4545269 C-105.61652345 225.22914681 -105.89565179 229.00405323 -106.17382812 232.77905273 C-106.25798477 233.88748535 -106.34214142 234.99591797 -106.42884827 236.13793945 C-106.86376349 242.10451134 -107.28815312 248.01966848 -107 254 C-104.91608527 256.35260775 -104.91608527 256.35260775 -101.9375 257.6875 C-100.93074219 258.25339844 -99.92398438 258.81929687 -98.88671875 259.40234375 C-97.45779297 260.19318359 -97.45779297 260.19318359 -96 261 C-85.69768813 267.95356805 -79.96802373 279.88020375 -77.40234375 291.76953125 C-76.89713171 295.82594248 -76.89252594 299.79273951 -76.9375 303.875 C-76.94201172 304.65875 -76.94652344 305.4425 -76.95117188 306.25 C-76.96285907 308.16670014 -76.98079092 310.08336048 -77 312 C-75.67548828 311.20335937 -75.67548828 311.20335937 -74.32421875 310.390625 C-61.567696 302.83318926 -48.1957828 296.78541701 -33 298 C-31.95779297 298.28810547 -31.95779297 298.28810547 -30.89453125 298.58203125 C-26.87806241 299.59895141 -24.80800517 299.4772036 -21.17578125 297.33203125 C-18.34754605 295.15673868 -15.61533945 292.91645906 -12.90429688 290.59912109 C-9.45996587 287.70676621 -5.87485172 284.99448635 -2.3125 282.25 C-0.76622467 281.04777789 0.77934093 279.84464241 2.32421875 278.640625 C7.62701265 274.51144549 12.93236824 270.38556395 18.23779297 266.25976562 C22.05126591 263.29400788 25.86410954 260.32744749 29.67578125 257.359375 C42.37562682 247.47180922 55.09848898 237.62382984 68 228 C64.14885654 223.26842135 60.12738429 219.14469516 55.4375 215.25 C54.82890137 214.73759766 54.22030273 214.22519531 53.59326172 213.69726562 C52.33807875 212.64061147 51.08124579 211.58591414 49.82275391 210.53320312 C48.12321466 209.10364159 46.43959171 207.6580059 44.76171875 206.203125 C36.48070077 199.04583059 27.82904393 192.46419315 19 186 C18.26555664 185.46052734 17.53111328 184.92105469 16.77441406 184.36523438 C-13.54886052 162.12903733 -44.9875912 143.48892343 -79.9375 129.5 C-80.60591919 129.23229797 -81.27433838 128.96459595 -81.9630127 128.68878174 C-89.850319 125.44985941 -89.850319 125.44985941 -98 123 Z M73 232 C72.52393311 232.35078613 72.04786621 232.70157227 71.55737305 233.06298828 C30.25 263.5 30.25 263.5 27.87426758 265.25048828 C26.29331017 266.41543849 24.71241808 267.58047734 23.1315918 268.74560547 C19.13744172 271.6892698 15.1421157 274.63131346 11.14453125 277.5703125 C1.05428819 284.99154972 -8.99452747 292.46484413 -19 300 C-15.84104021 302.55146752 -12.81679136 304.57514129 -9 306 C-5.8511833 305.0648552 -5.8511833 305.0648552 -2.80859375 303.03125 C-2.23095276 302.68530792 -1.65331177 302.33936584 -1.0581665 301.98294067 C0.83010237 300.84438387 2.69543387 299.67294351 4.5625 298.5 C5.87851803 297.69759834 7.19583457 296.89732268 8.5144043 296.09912109 C11.77744782 294.11605763 15.02303134 292.10651038 18.26196289 290.08435059 C20.6538275 288.59208107 23.05354949 287.11264225 25.453125 285.6328125 C27.88670074 284.12885496 30.3179199 282.62160902 32.74316406 281.10424805 C40.8540353 276.04002477 49.08175467 271.17823097 57.3125 266.3125 C67.96511167 260.01462172 78.57457297 253.67021565 89 247 C87.89084944 243.67254831 86.98563948 242.85261129 84.375 240.625 C83.39660156 239.77808594 83.39660156 239.77808594 82.3984375 238.9140625 C79.34923286 236.48065814 76.18908301 234.24702943 73 232 Z M88.62109375 254.0078125 C87.48454346 254.65766113 86.34799316 255.30750977 85.17700195 255.97705078 C83.93045398 256.69295146 82.68395456 257.40893668 81.4375 258.125 C80.15784792 258.85800042 78.8781436 259.59090963 77.59838867 260.32373047 C68.6612931 265.44680448 59.76380092 270.63579429 50.87719727 275.84594727 C42.73522527 280.60471617 34.51040153 285.20618014 26.26904297 289.79003906 C15.73290422 295.66920115 5.35247942 301.80439851 -5 308 C-2.34764599 311.73294268 -0.52035952 313.93370951 4 315 C6.53617489 314.19061497 8.59438218 313.34276843 10.94140625 312.15234375 C11.61212158 311.83005798 12.28283691 311.50777222 12.97387695 311.17572021 C15.17824381 310.1122953 17.36983465 309.0248188 19.5625 307.9375 C21.10900181 307.18726233 22.6564599 306.4389929 24.20483398 305.69262695 C27.33920986 304.18029136 30.46976679 302.66046881 33.59765625 301.13476562 C39.54927471 298.23915824 45.55198018 295.45866313 51.5625 292.6875 C53.79041231 291.65374869 56.01827476 290.61988992 58.24609375 289.5859375 C63.47533182 287.16419731 68.70921978 284.75275643 73.94511414 282.34544373 C77.73151171 280.6037517 81.51632215 278.85862606 85.30099487 277.1131897 C87.17647552 276.24937457 89.05271219 275.3871989 90.92971802 274.52670288 C93.5617702 273.31996093 96.19127178 272.10781701 98.8203125 270.89453125 C99.61788467 270.5305423 100.41545685 270.16655334 101.23719788 269.79153442 C105.43506332 267.8731586 105.43506332 267.8731586 109 265 C106.69152056 262.66265901 104.37756659 260.33081534 102.0625 258 C101.40314453 257.33226562 100.74378906 256.66453125 100.06445312 255.9765625 C99.43603516 255.34492188 98.80761719 254.71328125 98.16015625 254.0625 C97.57886963 253.47597656 96.99758301 252.88945312 96.39868164 252.28515625 C93.62556713 249.73712434 91.55097365 252.33020685 88.62109375 254.0078125 Z M106.4921875 274.6484375 C105.8314473 274.93225281 105.17070709 275.21606812 104.48994446 275.50848389 C102.28257391 276.45855317 100.07879147 277.41666095 97.875 278.375 C96.31305076 279.04964957 94.75095462 279.72395912 93.1887207 280.39794922 C79.4352731 286.34118522 65.71873362 292.36969475 52.00561523 298.40527344 C37.02937671 304.99644491 22.02311202 311.51643291 7 318 C6.7018576 321.7763932 6.7018576 321.7763932 8 324 C17.39307038 321.41112822 26.49005126 317.98847147 35.625 314.625 C36.91277344 314.15228165 36.91277344 314.15228165 38.2265625 313.67001343 C54.54812495 307.67824086 70.83998236 301.60616014 87.12425995 295.51390839 C88.99089135 294.81590606 90.85790211 294.11891852 92.72491455 293.42193604 C96.25523053 292.10327186 99.78407372 290.78074225 103.3125 289.45703125 C104.36094086 289.06589645 105.40938171 288.67476166 106.48959351 288.27177429 C112.42189678 286.04030069 118.24382148 283.65409129 124 281 C123.55897949 280.48228027 123.11795898 279.96456055 122.66357422 279.43115234 C121.61165365 278.19628906 120.55973307 276.96142578 119.5078125 275.7265625 C118.38567993 274.44163349 117.20628025 273.20628025 116 272 C112.24119123 272 109.95000337 273.15487461 106.4921875 274.6484375 Z " fill="#FE9700" transform="translate(254,18)"/>
<path d="M0 0 C40.07219854 13.24501755 79.02118947 30.89125218 115 53 C112.87852191 55.12147809 110.78990278 56.13662952 108.10229492 57.40869141 C83.78320256 68.92933385 62.44526812 85.70755417 42 103 C41.37222656 103.52867676 40.74445313 104.05735352 40.09765625 104.60205078 C32.40005923 111.09333833 24.88371297 117.75461306 17.50634766 124.60693359 C15.96334733 126.03389629 14.41069334 127.44965816 12.85546875 128.86328125 C9.54274194 131.87978883 6.26603149 134.93307117 3 138 C2.40864258 138.55059082 1.81728516 139.10118164 1.20800781 139.66845703 C-11.92641269 151.97714484 -21.79206663 165.48240595 -27 183 C-31.54943142 182.11144881 -34.39951078 179.46966181 -37.875 176.5625 C-44.40134059 171.22787094 -51.07521064 166.23294829 -57.98632812 161.41162109 C-60.26534707 159.81398681 -62.53107543 158.19835518 -64.796875 156.58203125 C-74.62622278 149.59566518 -84.51850653 142.96351639 -95 137 C-95.68739258 136.60361328 -96.37478516 136.20722656 -97.08300781 135.79882812 C-114.75887726 125.62349601 -132.98808198 117.35234343 -152 110 C-150.77170124 93.29513686 -143.97579785 80.71872194 -131.37890625 69.75 C-117.44717305 58.24944938 -102.35897847 48.4609769 -87 39 C-86.12102051 38.45537109 -85.24204102 37.91074219 -84.33642578 37.34960938 C-69.38296736 28.10880227 -54.34453697 19.9594286 -37.89306641 13.72216797 C-35.96790635 12.9877569 -34.05223287 12.23183337 -32.13671875 11.47265625 C-7.93882436 2 -7.93882436 2 0 2 C0 1.34 0 0.68 0 0 Z " fill="#FE9700" transform="translate(322,37)"/>
<path d="M0 0 C11.79363137 5.16311051 19.66411015 17.02844606 24.67578125 28.3671875 C29.78122687 42.37327725 31.02065535 57.79480108 26 72 C22.79124383 78.37966546 18.24159943 83.10336653 13.125 88 C8.38868743 92.58410593 3.852253 97.21879877 -0.44580078 102.21875 C-3.00481198 105.15160356 -5.80231098 107.82313752 -8.59375 110.53125 C-10.49094504 112.47772284 -12.25191888 114.44133504 -14.015625 116.50390625 C-18.64109594 121.83039411 -23.6190413 126.80508621 -28.60498047 131.7902832 C-30.23827448 133.42575882 -31.8633847 135.06907708 -33.48828125 136.71289062 C-40.00903363 143.26884959 -46.69604448 149.31160064 -54 155 C-54.90830566 155.72110962 -54.90830566 155.72110962 -55.83496094 156.45678711 C-65.50712517 164.01145776 -75.90816531 168.64579129 -88.19042492 169.60968971 C-98.59902095 170.42922864 -107.80012509 173.09334431 -117.60546875 176.5390625 C-119.24666329 177.10022161 -120.88842886 177.65971304 -122.53071594 178.21766663 C-126.86670805 179.69566509 -131.19475804 181.19568266 -135.52151489 182.70046616 C-139.99668507 184.25240517 -144.47909802 185.78312555 -148.9609375 187.31567383 C-156.04832884 189.74167677 -163.13190847 192.17845428 -170.21240234 194.62451172 C-178.70231482 197.5568762 -187.20116233 200.46193334 -195.70703125 203.34765625 C-196.83707077 203.73105164 -197.96711029 204.11444702 -199.13139343 204.50946045 C-201.25435478 205.22954836 -203.37735384 205.9495251 -205.50039673 206.66937256 C-210.17913069 208.25743171 -214.85537981 209.85275052 -219.53125 211.44921875 C-220.69228996 211.84561302 -220.69228996 211.84561302 -221.87678528 212.25001526 C-223.58457392 212.83319593 -225.29229617 213.41657104 -227 214 C-227.99 213.01 -228.98 212.02 -230 211 C-229 208 -229 208 -227.39634705 207.09719849 C-226.69699539 206.84743256 -225.99764374 206.59766663 -225.27709961 206.34033203 C-224.47485962 206.0471962 -223.67261963 205.75406036 -222.84606934 205.45204163 C-221.95713989 205.14044601 -221.06821045 204.8288504 -220.15234375 204.5078125 C-219.21741089 204.16926743 -218.28247803 203.83072235 -217.31921387 203.48191833 C-215.27376732 202.74254638 -213.22641634 202.00842749 -211.17745972 201.27883911 C-205.63096948 199.3035808 -200.098011 197.29092922 -194.5625 195.28515625 C-192.81011269 194.65216866 -192.81011269 194.65216866 -191.02232361 194.00639343 C-177.11662903 188.97606671 -163.27781545 183.76927063 -149.4375 178.5625 C-147.0032149 177.6478399 -144.56888966 176.73328664 -142.13452148 175.81884766 C-137.84639293 174.20776402 -133.5585981 172.59579941 -129.27124023 170.98266602 C-124.84864308 169.31870038 -120.424769 167.65818128 -116 166 C-116.90484792 164.84481082 -117.8244206 163.70114594 -118.75 162.5625 C-119.26046875 161.92441406 -119.7709375 161.28632813 -120.296875 160.62890625 C-122.34500886 158.67002593 -123.18548283 158.29137269 -126 158 C-129.15360967 158.9670422 -129.15360967 158.9670422 -132.60546875 160.55078125 C-133.59445663 160.97862663 -133.59445663 160.97862663 -134.60342407 161.41511536 C-136.80304187 162.37002114 -138.99507882 163.34119763 -141.1875 164.3125 C-142.74460562 164.99235983 -144.30215106 165.67121309 -145.86010742 166.34912109 C-150.04587601 168.17403466 -154.22521618 170.01323754 -158.40319824 171.855896 C-162.72683411 173.76081195 -167.05513633 175.65506723 -171.3828125 177.55078125 C-178.29784976 180.58241382 -185.21224367 183.6155135 -192.125 186.65234375 C-192.95726105 187.01793396 -193.78952209 187.38352417 -194.64700317 187.76019287 C-199.41220242 189.85556517 -204.17119774 191.9642405 -208.92475891 194.08587646 C-211.73213473 195.33697373 -214.543288 196.57940792 -217.35531616 197.82000732 C-218.64692605 198.39249423 -219.93671277 198.96911458 -221.22451782 199.55010986 C-222.97447208 200.33933503 -224.7312122 201.11346289 -226.48828125 201.88671875 C-227.95068237 202.53966919 -227.95068237 202.53966919 -229.44262695 203.20581055 C-232.17659514 204.05484143 -233.42096771 204.23032704 -236 203 C-236.33 202.01 -236.66 201.02 -237 200 C-217.06894893 190.56354214 -197.12444976 181.16013658 -177.10986328 171.90185547 C-172.12283049 169.5946967 -167.13764523 167.28355301 -162.15234375 164.97265625 C-152.10204875 160.31405437 -142.05118008 155.65669192 -132 151 C-131.76835005 148.6185756 -131.76835005 148.6185756 -134.58984375 146.3203125 C-136.26441809 144.70805725 -137.95226948 143.11112513 -139.64648438 141.51953125 C-140.18466797 141.00003906 -140.72285156 140.48054687 -141.27734375 139.9453125 C-142.02359009 139.24172607 -142.02359009 139.24172607 -142.78491211 138.52392578 C-144.28451912 136.64316489 -144.77572351 135.39732993 -145 133 C-144.15478516 131.15991211 -144.15478516 131.15991211 -142.7890625 129.27734375 C-142.04136597 128.23042358 -142.04136597 128.23042358 -141.27856445 127.16235352 C-140.73288818 126.42815186 -140.18721191 125.6939502 -139.625 124.9375 C-139.07352295 124.17816162 -138.5220459 123.41882324 -137.95385742 122.63647461 C-133.51501534 116.5736816 -128.90893849 110.69113198 -124 105 C-123.29617188 104.17371094 -122.59234375 103.34742188 -121.8671875 102.49609375 C-116.03085411 95.81255067 -109.60292246 89.901037 -103 84 C-102.14148438 83.21496094 -101.28296875 82.42992187 -100.3984375 81.62109375 C-95.28888558 76.95761382 -90.02930917 72.53493883 -84.65234375 68.18359375 C-82.21316337 66.1754909 -79.84786959 64.11350115 -77.5 62 C-73.01783527 57.97552111 -68.37289226 54.17694561 -63.69580078 50.38232422 C-61.01175158 48.19443384 -58.34339447 45.98759418 -55.6730957 43.78295898 C-45.44634468 35.34089161 -35.1041921 27.05998801 -24.66796875 18.87890625 C-22.18714905 16.93372563 -19.71100532 14.98280449 -17.23828125 13.02734375 C-16.31450684 12.29801636 -16.31450684 12.29801636 -15.37207031 11.55395508 C-14.20767089 10.63446914 -13.04418404 9.71382576 -11.88183594 8.79174805 C-8.00551449 5.73452332 -4.03423171 2.84589291 0 0 Z " fill="#FE9800" transform="translate(493,133)"/>
<path d="M0 0 C2.4778104 1.34995957 4.81968281 2.7291497 7.1875 4.25 C7.87948486 4.68965088 8.57146973 5.12930176 9.28442383 5.58227539 C22.58645294 14.14451812 35.11090806 23.5757532 47 34 C48.43603044 35.23088323 49.87323644 36.4603988 51.3125 37.6875 C52.199375 38.450625 53.08625 39.21375 54 40 C50.58429246 43.54708091 47.05889483 46.60457145 43.125 49.5625 C38.21377722 53.28569481 33.3652406 57.07534808 28.5625 60.9375 C24.27256128 64.38709597 19.96870851 67.81505542 15.62597656 71.19799805 C9.31829794 76.11344922 3.17213684 81.1840454 -2.91015625 86.375 C-8.44921099 91.09760946 -14.11394412 95.67004771 -19.77734375 100.2421875 C-25.15310008 104.60009375 -30.35417345 109.08479224 -35.46484375 113.75 C-38.10016031 116.08889421 -40.81277292 118.29715883 -43.5625 120.5 C-47.96352248 124.05800972 -51.95515928 127.84053575 -55.89453125 131.8984375 C-57.81235403 133.81270216 -59.78519658 135.52898542 -61.875 137.25 C-70.52562946 144.74038724 -77.33152712 154.25464358 -84.0625 163.4375 C-84.62283936 164.19458252 -85.18317871 164.95166504 -85.76049805 165.73168945 C-86.28426025 166.45831787 -86.80802246 167.18494629 -87.34765625 167.93359375 C-87.81179932 168.57353271 -88.27594238 169.21347168 -88.75415039 169.87280273 C-90.15666667 172.05502902 -90.15666667 172.05502902 -90.82348633 175.02954102 C-92.33969318 178.85765654 -93.89436324 179.64346057 -97.4765625 181.59375 C-98.60989014 182.2242627 -99.74321777 182.85477539 -100.91088867 183.50439453 C-102.14885374 184.16973041 -103.38689273 184.83492877 -104.625 185.5 C-105.90128448 186.20350582 -107.17641927 186.90910111 -108.45043945 187.61669922 C-111.04925848 189.05915821 -113.65200732 190.49412036 -116.25732422 191.92480469 C-121.62821677 194.88742901 -126.90550272 198.00750853 -132.1875 201.125 C-141.33104364 206.48708144 -150.54280687 211.71682932 -159.81225586 216.8581543 C-164.93630286 219.7037675 -170.02720802 222.58829423 -175.06640625 225.58203125 C-176.02522705 226.14712402 -176.98404785 226.7122168 -177.97192383 227.29443359 C-179.7771359 228.3621089 -181.57562068 229.44127116 -183.3659668 230.53369141 C-184.1681665 231.00597168 -184.97036621 231.47825195 -185.796875 231.96484375 C-186.49135742 232.3837085 -187.18583984 232.80257324 -187.90136719 233.23413086 C-190.59474846 234.21704583 -192.28141703 233.76211694 -195 233 C-195 232.34 -195 231.68 -195 231 C-192.67114258 229.41870117 -192.67114258 229.41870117 -189.39453125 227.54296875 C-188.51533524 227.03466774 -188.51533524 227.03466774 -187.61837769 226.51609802 C-186.35084806 225.78399739 -185.0814363 225.05514806 -183.81039429 224.3291626 C-180.43997999 222.40319686 -177.08384442 220.45264471 -173.7265625 218.50390625 C-173.0549559 218.11479065 -172.3833493 217.72567505 -171.69139099 217.32476807 C-166.29373458 214.19028473 -160.97339194 210.94463967 -155.6875 207.625 C-145.41737125 201.18807376 -134.98845754 195.02650998 -124.53979492 188.88525391 C-123.23582824 188.11678269 -121.93219421 187.34774673 -120.62890625 186.578125 C-119.68035011 186.0180928 -119.68035011 186.0180928 -118.71263123 185.44674683 C-113.5034094 182.34813026 -108.40628461 179.08871067 -103.36146545 175.72930908 C-99.21184626 173 -99.21184626 173 -97 173 C-101.7652031 168.0759568 -106.88657333 163.55740358 -112 159 C-118.09798123 162.98983741 -124.02852773 167.15121978 -129.875 171.5 C-131.54943788 172.7396391 -133.22391825 173.97922081 -134.8984375 175.21875 C-136.1683252 176.16041016 -136.1683252 176.16041016 -137.46386719 177.12109375 C-141.46985741 180.08895097 -145.48519224 183.04408841 -149.5 186 C-151.08338248 187.16659997 -152.66671571 188.33326678 -154.25 189.5 C-163.75 196.5 -163.75 196.5 -166.12768555 198.25195312 C-167.70209982 199.41206491 -169.27648163 200.57222076 -170.85083008 201.73242188 C-174.94535219 204.74975078 -179.04053061 207.76618312 -183.13671875 210.78125 C-184.40515625 211.71517578 -184.40515625 211.71517578 -185.69921875 212.66796875 C-187.30187158 213.84794391 -188.90472083 215.02765236 -190.5078125 216.20703125 C-191.24128906 216.74714844 -191.97476563 217.28726563 -192.73046875 217.84375 C-193.43864746 218.36308105 -194.14682617 218.88241211 -194.87646484 219.41748047 C-196.33878252 220.5072417 -197.78636876 221.61695979 -199.22119141 222.74267578 C-199.92808105 223.2942334 -200.6349707 223.84579102 -201.36328125 224.4140625 C-201.99145752 224.91373535 -202.61963379 225.4134082 -203.2668457 225.92822266 C-205 227 -205 227 -208 226.875 C-208.66 226.58625 -209.32 226.2975 -210 226 C-210 225.34 -210 224.68 -210 224 C-208.26406765 222.51556315 -206.4560534 221.11537809 -204.625 219.75 C-203.42262389 218.84448409 -202.22083289 217.93819087 -201.01953125 217.03125 C-200.0442749 216.29841797 -200.0442749 216.29841797 -199.04931641 215.55078125 C-195.44172488 212.82080491 -191.87949499 210.03267419 -188.3125 207.25 C-186.7670183 206.04675783 -185.22144427 204.84363424 -183.67578125 203.640625 C-182.90186035 203.03798828 -182.12793945 202.43535156 -181.33056641 201.81445312 C-176.80921801 198.29437547 -172.28550476 194.77733776 -167.76220703 191.25976562 C-163.94873409 188.29400788 -160.13589046 185.32744749 -156.32421875 182.359375 C-154.77869569 181.15618595 -153.23312329 179.95306029 -151.6875 178.75 C-150.56311523 177.87480713 -150.56311523 177.87480713 -149.41601562 176.98193359 C-145.49645299 173.9334808 -141.56961903 170.89508593 -137.62890625 167.87402344 C-135.08201223 165.92109931 -132.54085742 163.96076848 -130 162 C-129.00355469 161.23429688 -128.00710938 160.46859375 -126.98046875 159.6796875 C-125.59794922 158.60074219 -125.59794922 158.60074219 -124.1875 157.5 C-123.37667969 156.8709375 -122.56585938 156.241875 -121.73046875 155.59375 C-121.15941406 155.0678125 -120.58835937 154.541875 -120 154 C-119.76675277 151.70501114 -119.76675277 151.70501114 -122.23828125 149.71484375 C-123.25721771 148.78267927 -124.28241544 147.85733038 -125.3125 146.9375 C-125.85068359 146.45015381 -126.38886719 145.96280762 -126.94335938 145.46069336 C-131.38150982 141.47479304 -135.95792363 137.68826021 -140.625 133.97265625 C-142.8898643 132.09147784 -144.95514183 130.11586019 -147 128 C-146.34 128 -145.68 128 -145 128 C-144.835 126.824375 -144.67 125.64875 -144.5 124.4375 C-143.46182818 119.80228214 -141.57392197 115.74479452 -139.375 111.5625 C-139.06884766 110.96687256 -138.76269531 110.37124512 -138.44726562 109.75756836 C-133.02349265 99.7705765 -125.02842169 91.72536107 -117 83.8125 C-116.14921875 82.96236328 -115.2984375 82.11222656 -114.421875 81.23632812 C-110.01396711 76.85884291 -105.53280352 72.63009862 -100.82275391 68.57983398 C-98.04126896 66.16903984 -95.37191681 63.64259343 -92.6875 61.125 C-87.9463526 56.71898853 -83.10270317 52.51124827 -78.05078125 48.4609375 C-75.73446366 46.59246109 -73.44547949 44.70384821 -71.16796875 42.7890625 C-14.08456921 -5.08668812 -14.08456921 -5.08668812 0 0 Z " fill="#FEBC51" transform="translate(440,92)"/>
<path d="M0 0 C0.95060303 0.48154541 1.90120605 0.96309082 2.88061523 1.45922852 C10.21479711 5.21415217 17.44216589 9.15143679 24.625 13.1875 C25.5936499 13.73051758 26.5622998 14.27353516 27.56030273 14.83300781 C32.00693183 17.36493552 36.19768251 19.85909248 40.0625 23.25 C38.64324219 23.92482422 38.64324219 23.92482422 37.1953125 24.61328125 C14.06297374 35.78828118 -6.45796295 50.42800671 -26.18017578 66.796875 C-28.70683367 68.88615921 -31.26217907 70.93971268 -33.8125 73 C-38.10851484 76.51667782 -42.25813937 80.16834282 -46.35546875 83.9140625 C-48.47028683 85.82731698 -50.60586508 87.70716185 -52.7578125 89.578125 C-58.96596773 94.99929011 -64.94747882 100.65814367 -70.91992188 106.33642578 C-72.20563762 107.55586431 -73.49557408 108.77087894 -74.79101562 109.97998047 C-87.50526059 121.86334457 -96.91281316 135.34878064 -101.9375 152.25 C-106.48693142 151.36144881 -109.33701078 148.71966181 -112.8125 145.8125 C-119.32359195 140.49033518 -125.98103795 135.50331525 -132.87548828 130.69238281 C-135.29673123 128.99871677 -137.70878392 127.29230162 -140.12109375 125.5859375 C-141.93465133 124.3069449 -143.74845249 123.02829762 -145.5625 121.75 C-146.42834717 121.13785645 -147.29419434 120.52571289 -148.1862793 119.89501953 C-149.41278198 119.03432861 -149.41278198 119.03432861 -150.6640625 118.15625 C-151.39189941 117.64384766 -152.11973633 117.13144531 -152.86962891 116.60351562 C-154.83741046 115.31551316 -156.81282128 114.2533704 -158.9375 113.25 C-152.3601974 95.16241784 -137.51618897 77.24958041 -123.0234375 65.01953125 C-120.67223557 63.02497231 -118.40165964 60.95415762 -116.125 58.875 C-111.4021626 54.62373185 -106.57021393 50.54405041 -101.60302734 46.58105469 C-100.42579378 45.6402342 -99.25196072 44.69515122 -98.08056641 43.74707031 C-26.87651344 -13.76590284 -26.87651344 -13.76590284 0 0 Z " fill="#F77E00" transform="translate(396.9375,67.75)"/>
<path d="M0 0 C20.55577705 1.37898041 40.8077124 4.00810689 61 8.125 C61.78930908 8.28339355 62.57861816 8.44178711 63.3918457 8.60498047 C68.75462039 9.75462039 68.75462039 9.75462039 71 12 C70.45923828 12.18997559 69.91847656 12.37995117 69.36132812 12.57568359 C49.55396753 19.56969085 29.90324611 27.05350687 11.27539062 36.81738281 C8.59555828 38.21020554 5.89956355 39.56929861 3.203125 40.9296875 C-16.66933819 51.01826336 -35.56097486 62.07278333 -53 76 C-53.91523438 76.71800781 -54.83046875 77.43601562 -55.7734375 78.17578125 C-65.89446926 86.56514147 -70.9887874 98.16284056 -73 111 C-73.14065271 114.30167232 -72.96499757 117.54841403 -72.74438477 120.84375 C-72.69126664 121.78720276 -72.63814852 122.73065552 -72.58342075 123.70269775 C-72.40382608 126.80290299 -72.20363422 129.90128652 -72 133 C-71.8999724 134.5865741 -71.8999724 134.5865741 -71.79792404 136.2052002 C-71.36068457 143.13713747 -70.89327706 150.06673143 -70.41270256 156.99578857 C-70.14563012 160.84680636 -69.88172921 164.69803101 -69.61854553 168.54931641 C-69.10842271 176.00880055 -68.5946882 183.46803352 -68.08039093 190.92723083 C-67.377182 201.12794675 -66.67608822 211.32880407 -65.97851753 221.52990723 C-65.71875861 225.31791051 -65.45648908 229.10573444 -65.19407654 232.89355469 C-65.03543928 235.2076745 -64.8769098 237.5218017 -64.71850586 239.8359375 C-64.645271 240.88319 -64.57203613 241.9304425 -64.49658203 243.00942993 C-64.17901292 247.68282568 -63.90856257 252.3122395 -64 257 C-65.32 257 -66.64 257 -68 257 C-69.81751798 243.77370146 -71.02446059 230.50182167 -72.21805 217.2070694 C-72.57289556 213.25586659 -72.93118006 209.30498358 -73.29051208 205.35418701 C-74.18067456 195.55965484 -75.06494702 185.76459196 -75.94873047 175.96948242 C-76.63937412 168.31596264 -77.3315036 160.66258291 -78.02788967 153.00958323 C-78.44232688 148.45292227 -78.8519869 143.8958454 -79.26087952 139.33868408 C-79.47654419 136.96437878 -79.69239011 134.59008993 -79.90844727 132.21582031 C-80.00456802 131.13324951 -80.10068878 130.05067871 -80.19972229 128.93530273 C-80.33628235 127.44719086 -80.33628235 127.44719086 -80.4756012 125.92901611 C-80.55319955 125.06856312 -80.6307979 124.20811012 -80.71074772 123.32158279 C-80.98191801 121.1451288 -81.41679228 119.11193808 -82 117 C-86.60783955 115.87768999 -91.21600167 114.75671743 -95.82446289 113.63696289 C-97.39095775 113.25614231 -98.9573651 112.87496154 -100.52368164 112.4934082 C-102.77987925 111.94386753 -105.03639226 111.39563878 -107.29296875 110.84765625 C-107.98899704 110.6778273 -108.68502533 110.50799835 -109.40214539 110.33302307 C-112.92297314 109.47940364 -116.44549851 108.69835166 -120 108 C-119.78922318 108.83066986 -119.57844635 109.66133972 -119.36128235 110.5171814 C-112.63619697 137.08075822 -106.25757118 163.72205611 -99.95324707 190.38824463 C-98.92348437 194.74097423 -97.89110243 199.09308086 -96.85869884 203.44518471 C-95.84787745 207.70733269 -94.83835763 211.96978811 -93.82924843 216.23234177 C-93.35559645 218.23270442 -92.88163878 220.23299472 -92.4073391 222.23320389 C-89.50735918 234.4681004 -86.69125811 246.71743357 -84 259 C-85.65 259.33 -87.3 259.66 -89 260 C-89.27989273 258.93418701 -89.55978546 257.86837402 -89.84815979 256.77026367 C-93.12873216 244.27892992 -96.41154993 231.78818705 -99.69551468 219.29774475 C-100.55811324 216.01668587 -101.4205268 212.73557841 -102.28292847 209.45446777 C-110.58136737 177.87534768 -110.58136737 177.87534768 -119 146.328125 C-119.18140974 145.65336624 -119.36281948 144.97860748 -119.54972649 144.28340149 C-121.33627142 137.63983169 -123.13032659 130.99835809 -124.93383789 124.359375 C-125.48845426 122.30729444 -126.04306109 120.2552113 -126.59765625 118.203125 C-126.84640503 117.29524231 -127.09515381 116.38735962 -127.35144043 115.45196533 C-127.57199097 114.6341156 -127.7925415 113.81626587 -128.01977539 112.97363281 C-128.30637779 111.92118378 -128.30637779 111.92118378 -128.59877014 110.84747314 C-129 109 -129 109 -129 106 C-132.96 105.505 -132.96 105.505 -137 105 C-135.35045378 93.14931268 -133.48184097 80.68238243 -126 71 C-125.58234375 70.4328125 -125.1646875 69.865625 -124.734375 69.28125 C-101.00404428 39.27738358 -55.00994616 21.11296755 -20.4375 7.875 C-19.20636475 7.40118896 -17.97522949 6.92737793 -16.70678711 6.43920898 C-15.5441333 6.00294189 -14.38147949 5.5666748 -13.18359375 5.1171875 C-11.64529907 4.53880127 -11.64529907 4.53880127 -10.07592773 3.94873047 C-6.72588674 2.91545328 -3.4769691 2.4105948 0 2 C0 1.34 0 0.68 0 0 Z " fill="#FEBC51" transform="translate(194,10)"/>
<path d="M0 0 C1.16080078 0.31275879 2.32160156 0.62551758 3.51757812 0.94775391 C6.77421013 1.83702643 10.01363929 2.76399636 13.25048828 3.72143555 C15.23157787 4.30705434 17.21510527 4.88370451 19.19921875 5.45898438 C28.20917522 8.08835073 37.11535946 10.97403712 46 14 C46 14.66 46 15.32 46 16 C45.31711914 16.20044922 44.63423828 16.40089844 43.93066406 16.60742188 C28.95638691 21.03198216 14.3552918 25.84823745 0 32 C-0.99257813 32.41636719 -1.98515625 32.83273438 -3.0078125 33.26171875 C-19.1809751 40.30965658 -34.27368096 49.35014498 -49 59 C-49.78858398 59.51385254 -50.57716797 60.02770508 -51.38964844 60.55712891 C-60.83677869 66.72427436 -70.1454595 72.99817585 -79 80 C-79.81791016 80.63953613 -79.81791016 80.63953613 -80.65234375 81.29199219 C-92.72186132 90.79571095 -101.6047597 101.15441497 -104.52734375 116.828125 C-104.76262608 118.87798204 -104.89522101 120.93934646 -105 123 C-108.61586393 122.54801701 -111.83225878 121.76194987 -115.21875 120.45703125 C-116.28512695 120.04868042 -116.28512695 120.04868042 -117.37304688 119.63208008 C-117.90994141 119.42349365 -118.44683594 119.21490723 -119 119 C-119.0454618 119.61530547 -119.0909236 120.23061094 -119.13776302 120.86456203 C-120.24612416 135.86418695 -121.35632467 150.8636745 -122.46855068 165.86301327 C-123.00637937 173.11669863 -123.54359463 180.37042844 -124.0793457 187.62426758 C-124.54652672 193.9496761 -125.01487918 200.27499663 -125.48461491 206.60021597 C-125.73309429 209.94665673 -125.98082798 213.29314855 -126.22750664 216.63972282 C-126.50356702 220.38354764 -126.7816975 224.12721343 -127.06030273 227.87084961 C-127.14086411 228.96993149 -127.22142548 230.06901337 -127.3044281 231.20140076 C-127.7496995 237.15254374 -128.30107222 243.07314368 -129 249 C-128.28457031 249.2578125 -127.56914062 249.515625 -126.83203125 249.78125 C-114.64534616 255.02572689 -105.9689194 265.23317747 -100.96484375 277.296875 C-97.82831902 286.08422364 -95.21251955 300.1042767 -99 309 C-100.9609375 310.921875 -100.9609375 310.921875 -103.375 312.75 C-104.56222656 313.67039062 -104.56222656 313.67039062 -105.7734375 314.609375 C-108 316 -108 316 -111 316 C-111.01458252 315.18958252 -111.02916504 314.37916504 -111.04418945 313.54418945 C-111.106089 310.4704284 -111.18038202 307.39725835 -111.26245117 304.32397461 C-111.31115436 302.36658166 -111.3462012 300.40886388 -111.38085938 298.45117188 C-111.81292711 283.01457007 -114.63905168 268.65671673 -125.515625 257.10546875 C-133.92872014 249.9755029 -144.31848066 246.8630557 -155 245 C-154.505 244.01 -154.505 244.01 -154 243 C-151.41626766 243.30944701 -148.83304867 243.62243957 -146.25 243.9375 C-145.15558594 244.06801758 -145.15558594 244.06801758 -144.0390625 244.20117188 C-140.62415558 244.62027409 -137.32396457 245.117274 -134 246 C-133.15869511 243.01630262 -132.81010476 240.23103481 -132.65196228 237.13777161 C-132.60010269 236.16082336 -132.5482431 235.18387512 -132.49481201 234.17732239 C-132.44230286 233.11180649 -132.3897937 232.04629059 -132.33569336 230.94848633 C-132.27702591 229.8211911 -132.21835846 228.69389587 -132.15791321 227.53244019 C-131.96466133 223.79915942 -131.77714324 220.06561503 -131.58984375 216.33203125 C-131.45703144 213.7361256 -131.32393527 211.14023445 -131.19056702 208.5443573 C-130.91159782 203.09797188 -130.63523559 197.65146382 -130.36108398 192.20483398 C-130.04499937 185.9256513 -129.72455006 179.64670356 -129.4016065 173.36787015 C-129.09025041 167.31317011 -128.78156526 161.25833746 -128.47415352 155.2034359 C-128.34356578 152.63467118 -128.21239034 150.06593626 -128.08061028 147.49723244 C-127.89642105 143.89776185 -127.71525117 140.29815161 -127.53491211 136.69848633 C-127.48037872 135.64309158 -127.42584534 134.58769684 -127.36965942 133.50032043 C-127.32061966 132.50927307 -127.2715799 131.51822571 -127.22105408 130.49714661 C-127.17810683 129.64783978 -127.13515959 128.79853296 -127.09091091 127.92348957 C-126.96737326 123.95079787 -127 119.97461205 -127 116 C-136.57 112.7 -146.14 109.4 -156 106 C-156 91.55758009 -151.68560177 78.26071483 -141.703125 67.53125 C-121.8284073 48.49970214 -96.02123401 35.72371676 -71.73388672 23.39697266 C-69.42567933 22.21751537 -67.13333369 21.01524695 -64.84765625 19.79296875 C-53.17729099 13.62662494 -40.82815655 8.94170662 -28.47949219 4.32275391 C-26.10412344 3.41974044 -23.7454544 2.47185095 -21.40332031 1.48583984 C-13.34454605 -1.75941471 -8.28342348 -2.53259136 0 0 Z " fill="#F77E00" transform="translate(276,23)"/>
<path d="M0 0 C1.84368164 0.00676758 1.84368164 0.00676758 3.72460938 0.01367188 C6.71229356 0.02529711 9.69986855 0.04163441 12.6875 0.0625 C12.6875 0.7225 12.6875 1.3825 12.6875 2.0625 C10.86605469 2.62904297 10.86605469 2.62904297 9.0078125 3.20703125 C-30.18476605 15.67845609 -68.72776398 33.81309796 -100.77929688 59.81982422 C-102.10046337 60.89064229 -103.43208327 61.94853963 -104.765625 63.00390625 C-117.69538538 73.63888091 -120.70502081 88.31885672 -123.3125 104.0625 C-124.36824219 103.9903125 -125.42398438 103.918125 -126.51171875 103.84375 C-138.4570823 103.0782315 -150.34532261 102.95628245 -162.3125 103.0625 C-167.52630493 91.80349961 -167.06058416 80.82846382 -163.3125 69.0625 C-151.88570099 41.57246916 -123.13913482 28.38350953 -97.45898438 17.35839844 C-66.68099881 4.68230072 -33.16945916 -0.23575887 0 0 Z " fill="#FE9800" transform="translate(181.3125,9.9375)"/>
<path d="M0 0 C8.47656706 -0.55584046 15.8752797 1.04096153 22.875 6.0625 C23.57625 6.701875 24.2775 7.34125 25 8 C25.825 8.495 26.65 8.99 27.5 9.5 C31.88137925 12.12882755 34.82792539 14.36624084 37 19 C37.598125 19.53625 38.19625 20.0725 38.8125 20.625 C46.85596736 29.35790742 48.50103353 40.65195324 48.30859375 52.0625 C47.07865852 67.75585083 39.33063893 81.44401156 29 93 C28.27296875 93.82113281 27.5459375 94.64226562 26.796875 95.48828125 C-0.14358824 124.16827771 -45.92720848 134.7543982 -83 143 C-84.47001465 143.33233643 -84.47001465 143.33233643 -85.96972656 143.67138672 C-88.68464445 144.27826713 -91.40274704 144.86450299 -94.125 145.4375 C-94.888125 145.60185547 -95.65125 145.76621094 -96.4375 145.93554688 C-101.99108075 147.03736939 -107.34819738 147.16553705 -113 147 C-112 145 -112 145 -108.39941406 143.66235352 C-106.77381759 143.14383199 -105.1456567 142.63331196 -103.515625 142.12890625 C-101.70844727 141.55451556 -99.90132047 140.97996463 -98.09423828 140.40527344 C-97.14035217 140.10488159 -96.18646606 139.80448975 -95.20367432 139.49499512 C-24.15214207 118.24769231 -24.15214207 118.24769231 26.4375 67.375 C32.64252835 55.41216622 35.3952071 42.95267042 31.8125 29.625 C30.19081285 24.96647416 27.85025703 21.00479153 25 17 C24.443125 16.154375 23.88625 15.30875 23.3125 14.4375 C16.75633579 7.52694853 9.00728188 3.75698172 0 1 C0 0.67 0 0.34 0 0 Z " fill="#F77F01" transform="translate(221,317)"/>
<path d="M0 0 C3.3 0 6.6 0 10 0 C21.91571461 30.0071921 33.77962818 60.03317286 45.52415466 90.10780334 C48.472895 97.65655134 51.43040686 105.20184007 54.390625 112.74609375 C54.84372543 113.90089233 55.29682587 115.05569092 55.76365662 116.2454834 C57.54424112 120.78320022 59.32499842 125.32084897 61.10647583 129.85821533 C63.42009033 135.75107643 65.73016436 141.6452965 68.03570557 147.5413208 C68.91203063 149.77570287 69.7952338 152.0072019 70.68115234 154.23779297 C71.14086426 155.40584473 71.60057617 156.57389648 72.07421875 157.77734375 C72.45537842 158.73761475 72.83653809 159.69788574 73.22924805 160.68725586 C74 163 74 163 74 166 C72.68 166.33 71.36 166.66 70 167 C63.32990142 152.06983748 56.88309216 137.05561282 50.55654907 121.97750854 C44.80892144 108.27942708 39.01205457 94.60304499 33.1875 80.9375 C25.44753632 62.77623814 17.7505422 44.59725119 10.09057617 26.40209961 C9.52067207 25.0497094 9.52067207 25.0497094 8.93925476 23.66999817 C8.23856136 22.00721892 7.53855373 20.34415042 6.83943176 18.68070984 C6.52310287 17.93029922 6.20677399 17.17988861 5.88085938 16.40673828 C5.423927 15.3227475 5.423927 15.3227475 4.95776367 14.21685791 C3.61056327 11.09860237 2.18048228 8.01895261 0.73986816 4.94284058 C0 3 0 3 0 0 Z " fill="#7F959F" transform="translate(20,112)"/>
<path d="M0 0 C3.0492026 2.23524708 5.20034735 4.17347259 6.5 7.8125 C6.5 11.86382572 5.92540782 14.14400199 3.75 17.5625 C-1.22102943 21.00398191 -6.64315041 21.63431979 -12.5 22.8125 C-22.85994128 25.37417947 -28.85197759 29.83247599 -36.125 37.625 C-38.5 39.8125 -38.5 39.8125 -41.5 39.8125 C-42.29263014 26.9190497 -40.807657 17.52843 -32.1875 7.3125 C-24.20594488 -0.97501474 -10.80706857 -6.38417569 0 0 Z " fill="#FFBC50" transform="translate(132.5,283.1875)"/>
<path d="M0 0 C2.97 0.33 5.94 0.66 9 1 C12.56632619 15.83241512 16.12865985 30.66578689 19.6875 45.5 C19.94954853 46.59227905 20.21159706 47.68455811 20.48158646 48.80993652 C28.80420806 83.50603871 37.0350237 118.21983823 45 153 C43.35 153.33 41.7 153.66 40 154 C39.72010727 152.93418701 39.44021454 151.86837402 39.15184021 150.77026367 C35.87126784 138.27892992 32.58845007 125.78818705 29.30448532 113.29774475 C28.44188676 110.01668587 27.5794732 106.73557841 26.71707153 103.45446777 C18.41863263 71.87534768 18.41863263 71.87534768 10 40.328125 C9.81859026 39.65336624 9.63718052 38.97860748 9.45027351 38.28340149 C7.66372858 31.63983169 5.86967341 24.99835809 4.06616211 18.359375 C3.51154574 16.30729444 2.95693891 14.2552113 2.40234375 12.203125 C2.15359497 11.29524231 1.90484619 10.38735962 1.64855957 9.45196533 C1.42800903 8.6341156 1.2074585 7.81626587 0.98022461 6.97363281 C0.78915634 6.27200012 0.59808807 5.57036743 0.40122986 4.84747314 C0 3 0 3 0 0 Z " fill="#AFBCC2" transform="translate(65,116)"/>
<path d="M0 0 C1.5625 1.25 1.5625 1.25 2.5625 2.25 C4.41141946 2.48363881 6.26738031 2.66303635 8.125 2.8125 C9.13691406 2.89628906 10.14882813 2.98007812 11.19140625 3.06640625 C11.97386719 3.12699219 12.75632812 3.18757813 13.5625 3.25 C10.3583424 5.38610507 7.54831554 6.38549698 3.89941406 7.60986328 C3.22259992 7.83833639 2.54578577 8.0668095 1.8484621 8.30220604 C-0.40693459 9.06242054 -2.66438813 9.81632976 -4.921875 10.5703125 C-6.51780147 11.1069743 -8.11358839 11.64405128 -9.70924377 12.18151855 C-13.1046109 13.32430871 -16.50086295 14.4644131 -19.89785767 15.60235596 C-25.17968755 17.37173039 -30.45957018 19.14685942 -35.73901367 20.92333984 C-37.4980288 21.51517561 -39.25704674 22.10700301 -41.0160675 22.69882202 C-41.88447077 22.99099987 -42.75287403 23.28317772 -43.64759254 23.58420944 C-46.27831277 24.46907594 -48.909231 25.35335132 -51.54020691 26.23745728 C-65.95529068 31.0821291 -80.3568566 35.96549052 -94.75 40.875 C-96.70995685 41.5431435 -98.66991764 42.21127545 -100.62988281 42.87939453 C-104.89946255 44.33516908 -109.16864184 45.79211096 -113.4375 47.25 C-114.4275 46.26 -115.4175 45.27 -116.4375 44.25 C-115.4375 41.25 -115.4375 41.25 -113.83384705 40.34719849 C-113.13449539 40.09743256 -112.43514374 39.84766663 -111.71459961 39.59033203 C-110.91235962 39.2971962 -110.11011963 39.00406036 -109.28356934 38.70204163 C-107.95017517 38.23464821 -107.95017517 38.23464821 -106.58984375 37.7578125 C-105.65491089 37.41926743 -104.71997803 37.08072235 -103.75671387 36.73191833 C-101.71126732 35.99254638 -99.66391634 35.25842749 -97.61495972 34.52883911 C-92.06846948 32.5535808 -86.535511 30.54092922 -81 28.53515625 C-79.83174179 28.11316452 -78.66348358 27.69117279 -77.45982361 27.25639343 C-63.55412903 22.22606671 -49.71531545 17.01927063 -35.875 11.8125 C-33.4407149 10.8978399 -31.00638966 9.98328664 -28.57202148 9.06884766 C-24.28389293 7.45776402 -19.9960981 5.84579941 -15.70874023 4.23266602 C-14.35823074 3.72777145 -14.35823074 3.72777145 -12.98043823 3.212677 C-11.33000945 2.58787621 -9.68479408 1.94905788 -8.0461731 1.29391479 C-2.68942867 -0.82751651 -2.68942867 -0.82751651 0 0 Z " fill="#8A9DA6" transform="translate(379.4375,299.75)"/>
<path d="M0 0 C18.18076018 1.56368541 33.17307724 6.42870428 45.4375 20.875 C55.09329467 33.8430735 57.46938042 48.36607672 55.76171875 64.2109375 C54.63972051 66.84619492 52.88868986 68.03574942 50.625 69.75 C49.83351562 70.36359375 49.04203125 70.9771875 48.2265625 71.609375 C46 73 46 73 43 73 C42.98541748 72.18958252 42.97083496 71.37916504 42.95581055 70.54418945 C42.893911 67.4704284 42.81961798 64.39725835 42.73754883 61.32397461 C42.68884564 59.36658166 42.6537988 57.40886388 42.61914062 55.45117188 C42.18707289 40.01457007 39.36094832 25.65671673 28.484375 14.10546875 C20.07127986 6.9755029 9.68151934 3.8630557 -1 2 C-0.67 1.34 -0.34 0.68 0 0 Z " fill="#F78001" transform="translate(122,266)"/>
<path d="M0 0 C6.875 0.875 6.875 0.875 8 2 C8.20569373 3.69154738 8.34659077 5.39101039 8.46192932 7.09111023 C8.53903137 8.19448227 8.61613342 9.29785431 8.6955719 10.43466187 C8.77613327 11.65593781 8.85669464 12.87721375 8.93969727 14.13549805 C9.02762543 15.41347763 9.11555359 16.69145721 9.20614624 18.00816345 C9.4479285 21.52464481 9.68389727 25.04149504 9.91875577 28.55844474 C10.16525405 32.23674803 10.41666946 35.91471535 10.66746521 39.59272766 C11.08833557 45.77572036 11.50564613 51.95894518 11.9206543 58.14233398 C12.40010766 65.28557633 12.884153 72.42849525 13.37091595 79.57124299 C13.8890611 87.17491067 14.40409608 94.77878659 14.918082 102.38273644 C15.06625334 104.57195947 15.21497263 106.76114472 15.36380196 108.9503231 C15.64157585 113.03922773 15.91583679 117.1283607 16.18969727 121.2175293 C16.27228287 122.42868408 16.35486847 123.63983887 16.43995667 124.88769531 C16.51423889 126.00516647 16.58852112 127.12263763 16.66505432 128.27397156 C16.7301246 129.24055537 16.79519487 130.20713919 16.86223698 131.20301342 C17.00688403 134.13976558 17.02329291 137.0601689 17 140 C15.68 140 14.36 140 13 140 C11.01274998 125.48688823 9.72557069 110.9135229 8.3984375 96.328125 C8.15485197 93.6701291 7.9110933 91.01214957 7.66714478 88.35418701 C7.15939477 82.81734638 6.65373718 77.28031782 6.14941406 71.74316406 C5.5669969 65.34883328 4.98137709 58.95480189 4.39405382 52.56092 C3.82637079 46.38021349 3.26074619 40.19932035 2.69612503 34.01833344 C2.45658913 31.39797235 2.2165581 28.77765648 1.97602463 26.15738678 C1.64156769 22.51035868 1.30946482 18.86312389 0.97802734 15.21582031 C0.87831131 14.13324951 0.77859528 13.05067871 0.67585754 11.93530273 C0.58619217 10.94322815 0.49652679 9.95115356 0.40414429 8.92901611 C0.32562414 8.06856312 0.247104 7.20811012 0.16620445 6.32158279 C0.0156814 4.21904152 0 2.10792244 0 0 Z " fill="#AFBCC3" transform="translate(113,127)"/>
<path d="M0 0 C1.8125 1.4375 1.8125 1.4375 3 3 C3 3.66 3 4.32 3 5 C-3.5623416 7.85453095 -10.12487112 10.70862957 -16.6875 13.5625 C-18.19756119 14.21919678 -18.19756119 14.21919678 -19.73812866 14.88916016 C-32.33618241 20.36751233 -44.93609795 25.8415476 -57.5390625 31.30859375 C-58.73406876 31.82700333 -59.92907501 32.3454129 -61.16029358 32.87953186 C-67.00398886 35.41449402 -72.84791473 37.94892291 -78.69213867 40.48266602 C-80.8429412 41.41551582 -82.99373896 42.34837661 -85.14453125 43.28125 C-86.11149933 43.70027084 -87.07846741 44.11929169 -88.07473755 44.55101013 C-89.44503616 45.14547691 -89.44503616 45.14547691 -90.84301758 45.75195312 C-91.70980133 46.12521729 -92.57658508 46.49848145 -93.46963501 46.88305664 C-95.16951181 47.6334093 -96.8572346 48.41186439 -98.53207397 49.21655273 C-99.71828842 49.78128296 -99.71828842 49.78128296 -100.9284668 50.35742188 C-101.6194194 50.69769409 -102.31037201 51.03796631 -103.02226257 51.3885498 C-105.44855637 52.13867861 -106.68028924 52.01378081 -109 51 C-109.495 49.515 -109.495 49.515 -110 48 C-72.43036549 30.21246478 -72.43036549 30.21246478 -57.06518555 23.12768555 C-50.74030461 20.21029496 -44.43241584 17.26206814 -38.14131165 14.27261353 C-34.38640396 12.49056752 -30.62638148 10.71946778 -26.86581421 8.94940186 C-25.00691491 8.07118076 -23.15028926 7.18812984 -21.29605103 6.30010986 C-18.6939922 5.05467749 -16.08442693 3.82646838 -13.47265625 2.6015625 C-12.690578 2.22209473 -11.90849976 1.84262695 -11.10272217 1.45166016 C-4.32425596 -1.691197 -4.32425596 -1.691197 0 0 Z " fill="#AFBCC1" transform="translate(366,285)"/>
<path d="M0 0 C2.97 0.495 2.97 0.495 6 1 C6.33315646 14.31968131 5.29688199 27.50031606 4.28515625 40.7734375 C4.10775256 43.15179237 3.93079413 45.53018049 3.7542572 47.90859985 C3.38518712 52.86592038 3.01254517 57.82295383 2.63696289 62.77978516 C2.15679613 69.11737405 1.68290707 75.45541164 1.21134281 81.79364586 C0.75895476 87.87040624 0.30340935 93.94692873 -0.15234375 100.0234375 C-0.23826216 101.17260021 -0.32418056 102.32176292 -0.41270256 103.50574875 C-0.65743018 106.7713818 -0.90440827 110.03683665 -1.15209961 113.30224609 C-1.22331024 114.2562027 -1.29452087 115.2101593 -1.3678894 116.19302368 C-1.79700971 121.81207425 -2.34693446 127.40242916 -3 133 C-4.32 132.34 -5.64 131.68 -7 131 C-5.58077186 100.1116239 -4.14643648 69.22391364 -2.56802368 38.34320068 C-2.43997514 35.83514976 -2.31282981 33.32705256 -2.18661499 30.81890869 C-2.01002754 27.3179241 -1.82980335 23.81714616 -1.6484375 20.31640625 C-1.59749435 19.29723618 -1.54655121 18.2780661 -1.49406433 17.22801208 C-1.18957124 11.45195069 -0.69567524 5.74246269 0 0 Z " fill="#57707B" transform="translate(150,139)"/>
<path d="M0 0 C3.16115776 1.36983503 3.9927092 1.9890638 6 5 C-3.71604637 12.57049214 -13.59752908 19.9001096 -23.52832031 27.18554688 C-27.52303737 30.11805746 -31.51126088 33.05936661 -35.5 36 C-37.08330059 37.16671111 -38.66663396 38.33337772 -40.25 39.5 C-41.03375 40.0775 -41.8175 40.655 -42.625 41.25 C-49.75 46.5 -49.75 46.5 -52.12866211 48.25268555 C-53.6998048 49.41037815 -55.27093131 50.56809271 -56.84204102 51.72583008 C-60.98675346 54.7799874 -65.13180988 57.83367646 -69.27734375 60.88671875 C-70.14101562 61.52287109 -71.0046875 62.15902344 -71.89453125 62.81445312 C-73.54937555 64.03334382 -75.20431828 65.25210088 -76.859375 66.47070312 C-77.60574219 67.02048828 -78.35210937 67.57027344 -79.12109375 68.13671875 C-79.7752124 68.61842529 -80.42933105 69.10013184 -81.10327148 69.59643555 C-82.45267967 70.59498719 -83.77267157 71.63382574 -85.07055664 72.69848633 C-87 74 -87 74 -89.75 73.6875 C-90.4925 73.460625 -91.235 73.23375 -92 73 C-92 72.34 -92 71.68 -92 71 C-90.26406765 69.51556315 -88.4560534 68.11537809 -86.625 66.75 C-85.42262389 65.84448409 -84.22083289 64.93819087 -83.01953125 64.03125 C-82.0442749 63.29841797 -82.0442749 63.29841797 -81.04931641 62.55078125 C-77.44172488 59.82080491 -73.87949499 57.03267419 -70.3125 54.25 C-68.7670183 53.04675783 -67.22144427 51.84363424 -65.67578125 50.640625 C-64.5148999 49.73666992 -64.5148999 49.73666992 -63.33056641 48.81445312 C-58.80921801 45.29437547 -54.28550476 41.77733776 -49.76220703 38.25976562 C-45.94873409 35.29400788 -42.13589046 32.32744749 -38.32421875 29.359375 C-25.62437318 19.47180922 -12.90151102 9.62382984 0 0 Z " fill="#5B727C" transform="translate(322,245)"/>
<path d="M0 0 C2.5 1.3125 2.5 1.3125 5 3 C5 3.99 5 4.98 5 6 C3.9162207 6.61705811 3.9162207 6.61705811 2.81054688 7.24658203 C-0.62702781 9.20478353 -4.06381051 11.16436914 -7.5 13.125 C-8.13257721 13.48591736 -8.76515442 13.84683472 -9.41690063 14.21868896 C-18.0361196 19.13871606 -26.62680576 24.10360901 -35.1875 29.125 C-44.33269501 34.48437508 -53.5427219 39.71678219 -62.81225586 44.8581543 C-67.93630286 47.7037675 -73.02720802 50.58829423 -78.06640625 53.58203125 C-79.50463745 54.42967041 -79.50463745 54.42967041 -80.97192383 55.29443359 C-82.7771359 56.3621089 -84.57562068 57.44127116 -86.3659668 58.53369141 C-87.1681665 59.00597168 -87.97036621 59.47825195 -88.796875 59.96484375 C-89.49135742 60.3837085 -90.18583984 60.80257324 -90.90136719 61.23413086 C-93.59474846 62.21704583 -95.28141703 61.76211694 -98 61 C-98 60.34 -98 59.68 -98 59 C-95.67114258 57.41870117 -95.67114258 57.41870117 -92.39453125 55.54296875 C-91.80840057 55.20410141 -91.2222699 54.86523407 -90.61837769 54.51609802 C-89.35084806 53.78399739 -88.0814363 53.05514806 -86.81039429 52.3291626 C-83.43997999 50.40319686 -80.08384442 48.45264471 -76.7265625 46.50390625 C-76.0549559 46.11479065 -75.3833493 45.72567505 -74.69139099 45.32476807 C-69.29373128 42.19028281 -63.97345595 38.9445414 -58.6875 35.625 C-49.77332151 30.03997601 -40.74212586 24.66528054 -31.6875 19.3125 C-21.03488833 13.01462172 -10.42542703 6.67021565 0 0 Z " fill="#AFBBC0" transform="translate(343,264)"/>
<path d="M0 0 C2.5 1.6875 2.5 1.6875 4.5 4.6875 C4.84323612 8.3944501 4.79041516 10.97759627 3.375 14.4375 C0.59412587 17.77454895 -2.40451145 19.42200824 -6.76611328 19.97460938 C-9.35071423 20.09045152 -11.91314871 20.09673774 -14.5 20.0625 C-15.81484375 20.07990234 -15.81484375 20.07990234 -17.15625 20.09765625 C-22.52056747 20.07341988 -27.45951565 19.72798435 -31.5 15.6875 C-32 13.5 -32 13.5 -31.5 10.6875 C-23.95707375 1.3653453 -11.4656008 -4.2996003 0 0 Z " fill="#FFBC50" transform="translate(223.5,330.3125)"/>
<path d="M0 0 C0.99 0.99 1.98 1.98 3 3 C1.84121146 6.47636563 0.97849729 7.01915065 -1.9296875 9.1015625 C-2.72503906 9.67390625 -3.52039063 10.24625 -4.33984375 10.8359375 C-5.17644531 11.42632812 -6.01304687 12.01671875 -6.875 12.625 C-8.11830078 13.5221875 -8.11830078 13.5221875 -9.38671875 14.4375 C-15.58041239 18.86013746 -15.58041239 18.86013746 -19 20 C-19.99 19.67 -20.98 19.34 -22 19 C-22 18.34 -22 17.68 -22 17 C-20.05463642 15.35531085 -18.10679682 13.82535295 -16.0625 12.3125 C-14.8722256 11.41559045 -13.68212242 10.51845364 -12.4921875 9.62109375 C-11.90147461 9.17878418 -11.31076172 8.73647461 -10.70214844 8.28076172 C-8.34293625 6.50560006 -6.01418812 4.69249279 -3.6875 2.875 C-2.96949219 2.31554687 -2.25148437 1.75609375 -1.51171875 1.1796875 C-0.76341797 0.59574219 -0.76341797 0.59574219 0 0 Z " fill="#697E87" transform="translate(252,299)"/>
<path d="M0 0 C0.99 0 1.98 0 3 0 C4.26264504 6.29556584 3.728185 12.08248236 3.0625 18.4375 C2.91264648 19.96407227 2.91264648 19.96407227 2.75976562 21.52148438 C2.51391025 24.01516031 2.26047263 26.50781576 2 29 C0.68 28.34 -0.64 27.68 -2 27 C-1.8612922 23.06221489 -1.71281508 19.12485777 -1.5625 15.1875 C-1.52318359 14.06794922 -1.48386719 12.94839844 -1.44335938 11.79492188 C-1.40146484 10.72177734 -1.35957031 9.64863281 -1.31640625 8.54296875 C-1.27974854 7.55321045 -1.24309082 6.56345215 -1.20532227 5.54370117 C-1 3 -1 3 0 0 Z " fill="#6E828B" transform="translate(145,243)"/>
<path d="M0 0 C0.33 0.66 0.66 1.32 1 2 C1.99 1.67 2.98 1.34 4 1 C3.67 5.95 3.34 10.9 3 16 C1.68 15.34 0.36 14.68 -1 14 C-0.67 9.38 -0.34 4.76 0 0 Z " fill="#7D929C" transform="translate(144,256)"/>
<path d="M0 0 C0.66 0.33 1.32 0.66 2 1 C1.14589713 4.20288575 0.47392731 6.49338805 -1.8125 8.9375 C-4.61065845 10.29660553 -6.08020007 9.89216109 -9 9 C-9 8.34 -9 7.68 -9 7 C-7.03125 5.2734375 -7.03125 5.2734375 -4.5 3.375 C-3.6646875 2.74335938 -2.829375 2.11171875 -1.96875 1.4609375 C-1.3190625 0.97882813 -0.669375 0.49671875 0 0 Z " fill="#778990" transform="translate(239,309)"/>
<path d="M0 0 C0.99 0.33 1.98 0.66 3 1 C3.33 3.31 3.66 5.62 4 8 C3.01 8.33 2.02 8.66 1 9 C-0.4783226 6.04335481 -0.06032783 3.25770263 0 0 Z " fill="#718893" transform="translate(144,249)"/>
<path d="M0 0 C0.99 0.33 1.98 0.66 3 1 C3 3.97 3 6.94 3 10 C2.67 8.68 2.34 7.36 2 6 C1.01 6 0.02 6 -1 6 C-1.042721 4.33388095 -1.04063832 2.66617115 -1 1 C-0.67 0.67 -0.34 0.34 0 0 Z " fill="#607984" transform="translate(146,237)"/>
</svg>
